<svg id="visual" viewBox="0 0 900 600" width="900" height="600" xmlns="http://www.w3.org/2000/svg" xmlns:xlink="http://www.w3.org/1999/xlink" version="1.1"><rect x="0" y="0" width="900" height="600" fill="#1D1C0D"></rect><defs><linearGradient id="grad1_0" x1="33.3%" y1="0%" x2="100%" y2="100%"><stop offset="20%" stop-color="#1d1c0d" stop-opacity="1"></stop><stop offset="80%" stop-color="#1d1c0d" stop-opacity="1"></stop></linearGradient></defs><defs><linearGradient id="grad2_0" x1="0%" y1="0%" x2="66.7%" y2="100%"><stop offset="20%" stop-color="#1d1c0d" stop-opacity="1"></stop><stop offset="80%" stop-color="#1d1c0d" stop-opacity="1"></stop></linearGradient></defs><g transform="translate(900, 0)"><path d="M0 486.7C-45.3 466.4 -90.7 446.1 -141.2 434.6C-191.8 423.2 -247.5 420.6 -286.1 393.8C-324.7 367 -346.2 316 -375.4 272.7C-404.6 229.5 -441.4 194 -461.3 149.9C-481.1 105.7 -483.9 52.9 -486.7 0L0 0Z" fill="#459F92"></path></g><g transform="translate(0, 600)"><path d="M0 -486.7C51.2 -484.1 102.4 -481.5 150.4 -462.9C198.4 -444.4 243.3 -409.9 265.1 -364.9C286.9 -319.9 285.5 -264.4 314.7 -228.6C343.9 -192.9 403.7 -177 437.5 -142.1C471.3 -107.3 479 -53.7 486.7 0L0 0Z" fill="#459F92"></path></g></svg>