<svg id="visual" viewBox="0 0 900 600" width="900" height="600" xmlns="http://www.w3.org/2000/svg" xmlns:xlink="http://www.w3.org/1999/xlink" version="1.1"><g stroke-width="1" stroke-linejoin="bevel"><path d="M403 325L514 393L500 319Z" fill="#bfd5b7" stroke="#bfd5b7"></path><path d="M403 325L376 419L514 393Z" fill="#e0e7cd" stroke="#e0e7cd"></path><path d="M376 419L427 468L514 393Z" fill="#eef0da" stroke="#eef0da"></path><path d="M427 468L509 487L514 393Z" fill="#9bc3a6" stroke="#9bc3a6"></path><path d="M303 322L329 421L376 419Z" fill="#fcfae8" stroke="#fcfae8"></path><path d="M376 419L293 533L427 468Z" fill="#eef0da" stroke="#eef0da"></path><path d="M509 487L595 384L514 393Z" fill="#459f92" stroke="#459f92"></path><path d="M514 393L595 384L500 319Z" fill="#eef0da" stroke="#eef0da"></path><path d="M293 190L303 322L403 325Z" fill="#87ba9f" stroke="#87ba9f"></path><path d="M403 325L303 322L376 419Z" fill="#5da895" stroke="#5da895"></path><path d="M572 220L476 207L500 319Z" fill="#87ba9f" stroke="#87ba9f"></path><path d="M500 319L476 207L403 325Z" fill="#87ba9f" stroke="#87ba9f"></path><path d="M595 384L602 287L500 319Z" fill="#eef0da" stroke="#eef0da"></path><path d="M602 287L572 220L500 319Z" fill="#73b19a" stroke="#73b19a"></path><path d="M538 83L422 161L476 207Z" fill="#5da895" stroke="#5da895"></path><path d="M476 207L422 161L403 325Z" fill="#adccae" stroke="#adccae"></path><path d="M501 600L595 530L509 487Z" fill="#fcfae8" stroke="#fcfae8"></path><path d="M509 487L595 530L595 384Z" fill="#adccae" stroke="#adccae"></path><path d="M595 384L707 309L602 287Z" fill="#87ba9f" stroke="#87ba9f"></path><path d="M329 421L293 533L376 419Z" fill="#d0dec2" stroke="#d0dec2"></path><path d="M427 468L501 600L509 487Z" fill="#e0e7cd" stroke="#e0e7cd"></path><path d="M161 498L293 533L329 421Z" fill="#adccae" stroke="#adccae"></path><path d="M398 600L501 600L427 468Z" fill="#bfd5b7" stroke="#bfd5b7"></path><path d="M422 161L293 190L403 325Z" fill="#9bc3a6" stroke="#9bc3a6"></path><path d="M303 322L192 360L329 421Z" fill="#e0e7cd" stroke="#e0e7cd"></path><path d="M293 533L398 600L427 468Z" fill="#87ba9f" stroke="#87ba9f"></path><path d="M715 470L698 393L595 384Z" fill="#5da895" stroke="#5da895"></path><path d="M602 287L686 217L572 220Z" fill="#fcfae8" stroke="#fcfae8"></path><path d="M698 393L707 309L595 384Z" fill="#eef0da" stroke="#eef0da"></path><path d="M501 600L567 600L595 530Z" fill="#eef0da" stroke="#eef0da"></path><path d="M595 530L715 470L595 384Z" fill="#5da895" stroke="#5da895"></path><path d="M199 301L192 360L303 322Z" fill="#87ba9f" stroke="#87ba9f"></path><path d="M206 228L199 301L303 322Z" fill="#e0e7cd" stroke="#e0e7cd"></path><path d="M189 600L316 600L293 533Z" fill="#e0e7cd" stroke="#e0e7cd"></path><path d="M293 533L316 600L398 600Z" fill="#adccae" stroke="#adccae"></path><path d="M422 161L337 117L293 190Z" fill="#459f92" stroke="#459f92"></path><path d="M293 190L206 228L303 322Z" fill="#9bc3a6" stroke="#9bc3a6"></path><path d="M395 72L337 117L422 161Z" fill="#5da895" stroke="#5da895"></path><path d="M707 309L686 217L602 287Z" fill="#9bc3a6" stroke="#9bc3a6"></path><path d="M572 220L538 83L476 207Z" fill="#fcfae8" stroke="#fcfae8"></path><path d="M679 600L715 470L595 530Z" fill="#eef0da" stroke="#eef0da"></path><path d="M698 393L827 375L707 309Z" fill="#d0dec2" stroke="#d0dec2"></path><path d="M110 409L161 498L192 360Z" fill="#eef0da" stroke="#eef0da"></path><path d="M165 134L206 228L293 190Z" fill="#d0dec2" stroke="#d0dec2"></path><path d="M686 217L621 127L572 220Z" fill="#eef0da" stroke="#eef0da"></path><path d="M621 127L538 83L572 220Z" fill="#e0e7cd" stroke="#e0e7cd"></path><path d="M538 83L395 72L422 161Z" fill="#5da895" stroke="#5da895"></path><path d="M110 409L192 360L104 329Z" fill="#9bc3a6" stroke="#9bc3a6"></path><path d="M192 360L161 498L329 421Z" fill="#bfd5b7" stroke="#bfd5b7"></path><path d="M567 600L679 600L595 530Z" fill="#9bc3a6" stroke="#9bc3a6"></path><path d="M104 329L192 360L199 301Z" fill="#459f92" stroke="#459f92"></path><path d="M795 600L785 476L715 470Z" fill="#fcfae8" stroke="#fcfae8"></path><path d="M715 470L785 476L698 393Z" fill="#bfd5b7" stroke="#bfd5b7"></path><path d="M707 309L772 204L686 217Z" fill="#5da895" stroke="#5da895"></path><path d="M89 221L104 329L199 301Z" fill="#bfd5b7" stroke="#bfd5b7"></path><path d="M161 498L189 600L293 533Z" fill="#fcfae8" stroke="#fcfae8"></path><path d="M91 600L189 600L161 498Z" fill="#eef0da" stroke="#eef0da"></path><path d="M686 217L730 129L621 127Z" fill="#9bc3a6" stroke="#9bc3a6"></path><path d="M598 0L537 0L538 83Z" fill="#5da895" stroke="#5da895"></path><path d="M812 260L772 204L707 309Z" fill="#5da895" stroke="#5da895"></path><path d="M772 204L730 129L686 217Z" fill="#73b19a" stroke="#73b19a"></path><path d="M286 0L165 134L337 117Z" fill="#459f92" stroke="#459f92"></path><path d="M337 117L165 134L293 190Z" fill="#eef0da" stroke="#eef0da"></path><path d="M206 228L89 221L199 301Z" fill="#bfd5b7" stroke="#bfd5b7"></path><path d="M785 476L827 375L698 393Z" fill="#fcfae8" stroke="#fcfae8"></path><path d="M827 375L812 260L707 309Z" fill="#459f92" stroke="#459f92"></path><path d="M772 204L782 130L730 129Z" fill="#adccae" stroke="#adccae"></path><path d="M537 0L380 0L395 72Z" fill="#459f92" stroke="#459f92"></path><path d="M395 72L286 0L337 117Z" fill="#5da895" stroke="#5da895"></path><path d="M537 0L395 72L538 83Z" fill="#bfd5b7" stroke="#bfd5b7"></path><path d="M598 0L538 83L621 127Z" fill="#e0e7cd" stroke="#e0e7cd"></path><path d="M0 406L79 479L110 409Z" fill="#73b19a" stroke="#73b19a"></path><path d="M110 409L79 479L161 498Z" fill="#73b19a" stroke="#73b19a"></path><path d="M165 134L89 221L206 228Z" fill="#adccae" stroke="#adccae"></path><path d="M104 329L0 406L110 409Z" fill="#eef0da" stroke="#eef0da"></path><path d="M713 0L598 0L621 127Z" fill="#9bc3a6" stroke="#9bc3a6"></path><path d="M380 0L286 0L395 72Z" fill="#459f92" stroke="#459f92"></path><path d="M900 239L782 130L772 204Z" fill="#87ba9f" stroke="#87ba9f"></path><path d="M730 129L713 0L621 127Z" fill="#d0dec2" stroke="#d0dec2"></path><path d="M679 600L795 600L715 470Z" fill="#5da895" stroke="#5da895"></path><path d="M785 476L900 426L827 375Z" fill="#eef0da" stroke="#eef0da"></path><path d="M79 479L91 600L161 498Z" fill="#459f92" stroke="#459f92"></path><path d="M165 134L88 131L89 221Z" fill="#bfd5b7" stroke="#bfd5b7"></path><path d="M0 300L0 406L104 329Z" fill="#adccae" stroke="#adccae"></path><path d="M124 0L88 131L165 134Z" fill="#bfd5b7" stroke="#bfd5b7"></path><path d="M286 0L200 0L165 134Z" fill="#459f92" stroke="#459f92"></path><path d="M800 0L713 0L730 129Z" fill="#d0dec2" stroke="#d0dec2"></path><path d="M900 530L900 426L785 476Z" fill="#bfd5b7" stroke="#bfd5b7"></path><path d="M827 375L900 293L812 260Z" fill="#459f92" stroke="#459f92"></path><path d="M812 260L900 239L772 204Z" fill="#73b19a" stroke="#73b19a"></path><path d="M900 426L900 293L827 375Z" fill="#73b19a" stroke="#73b19a"></path><path d="M782 130L800 0L730 129Z" fill="#9bc3a6" stroke="#9bc3a6"></path><path d="M0 300L104 329L89 221Z" fill="#d0dec2" stroke="#d0dec2"></path><path d="M79 479L0 487L91 600Z" fill="#e0e7cd" stroke="#e0e7cd"></path><path d="M0 209L0 300L89 221Z" fill="#459f92" stroke="#459f92"></path><path d="M900 293L900 239L812 260Z" fill="#fcfae8" stroke="#fcfae8"></path><path d="M0 406L0 487L79 479Z" fill="#adccae" stroke="#adccae"></path><path d="M795 600L900 530L785 476Z" fill="#87ba9f" stroke="#87ba9f"></path><path d="M0 71L0 209L88 131Z" fill="#d0dec2" stroke="#d0dec2"></path><path d="M88 131L0 209L89 221Z" fill="#fcfae8" stroke="#fcfae8"></path><path d="M200 0L124 0L165 134Z" fill="#fcfae8" stroke="#fcfae8"></path><path d="M795 600L900 600L900 530Z" fill="#87ba9f" stroke="#87ba9f"></path><path d="M900 104L800 0L782 130Z" fill="#d0dec2" stroke="#d0dec2"></path><path d="M0 487L0 600L91 600Z" fill="#d0dec2" stroke="#d0dec2"></path><path d="M900 239L900 104L782 130Z" fill="#87ba9f" stroke="#87ba9f"></path><path d="M124 0L0 71L88 131Z" fill="#adccae" stroke="#adccae"></path><path d="M900 104L900 0L800 0Z" fill="#bfd5b7" stroke="#bfd5b7"></path><path d="M124 0L0 0L0 71Z" fill="#e0e7cd" stroke="#e0e7cd"></path></g></svg>