<svg id="visual" viewBox="0 0 900 600" width="900" height="600" xmlns="http://www.w3.org/2000/svg" xmlns:xlink="http://www.w3.org/1999/xlink" version="1.1"><g stroke-width="1" stroke-linejoin="bevel"><path d="M482.3 361L423.7 389L502.3 468Z" fill="#3fb791" stroke="#3fb791"></path><path d="M423.7 389L387.7 514L502.3 468Z" fill="#b4f349" stroke="#b4f349"></path><path d="M644.9 350L473.3 234L482.3 361Z" fill="#b4f349" stroke="#b4f349"></path><path d="M482.3 361L473.3 234L423.7 389Z" fill="#46c38c" stroke="#46c38c"></path><path d="M502.3 468L644.9 350L482.3 361Z" fill="#68d879" stroke="#68d879"></path><path d="M387.7 514L520.3 600L502.3 468Z" fill="#98eb5c" stroke="#98eb5c"></path><path d="M502.3 468L680.9 509L644.9 350Z" fill="#46c38c" stroke="#46c38c"></path><path d="M387.7 514L386.7 600L520.3 600Z" fill="#3fab93" stroke="#3fab93"></path><path d="M473.3 234L418.7 205L423.7 389Z" fill="#46c38c" stroke="#46c38c"></path><path d="M423.7 389L243.1 461L387.7 514Z" fill="#68d879" stroke="#68d879"></path><path d="M520.3 600L604.9 600L502.3 468Z" fill="#b4f349" stroke="#b4f349"></path><path d="M604.9 600L680.9 509L502.3 468Z" fill="#3fab93" stroke="#3fab93"></path><path d="M257.1 274L260.1 338L423.7 389Z" fill="#68d879" stroke="#68d879"></path><path d="M387.7 514L285.1 600L386.7 600Z" fill="#7fe26c" stroke="#7fe26c"></path><path d="M260.1 338L243.1 461L423.7 389Z" fill="#98eb5c" stroke="#98eb5c"></path><path d="M741.4 350L660.9 242L644.9 350Z" fill="#46c38c" stroke="#46c38c"></path><path d="M644.9 350L660.9 242L473.3 234Z" fill="#98eb5c" stroke="#98eb5c"></path><path d="M473.3 234L546.3 141L418.7 205Z" fill="#55ce84" stroke="#55ce84"></path><path d="M418.7 205L257.1 274L423.7 389Z" fill="#459f92" stroke="#459f92"></path><path d="M150.6 368L150.6 466L243.1 461Z" fill="#68d879" stroke="#68d879"></path><path d="M243.1 461L285.1 600L387.7 514Z" fill="#b4f349" stroke="#b4f349"></path><path d="M753.4 600L734.4 499L680.9 509Z" fill="#46c38c" stroke="#46c38c"></path><path d="M680.9 509L734.4 499L644.9 350Z" fill="#55ce84" stroke="#55ce84"></path><path d="M734.4 499L741.4 350L644.9 350Z" fill="#3fb791" stroke="#3fb791"></path><path d="M660.9 242L546.3 141L473.3 234Z" fill="#7fe26c" stroke="#7fe26c"></path><path d="M418.7 205L389.7 144L257.1 274Z" fill="#3fb791" stroke="#3fb791"></path><path d="M546.3 141L389.7 144L418.7 205Z" fill="#68d879" stroke="#68d879"></path><path d="M150.6 368L243.1 461L260.1 338Z" fill="#459f92" stroke="#459f92"></path><path d="M243.1 461L150.6 466L285.1 600Z" fill="#f2ff00" stroke="#f2ff00"></path><path d="M129.6 255L150.6 368L257.1 274Z" fill="#d2f931" stroke="#d2f931"></path><path d="M257.1 274L150.6 368L260.1 338Z" fill="#68d879" stroke="#68d879"></path><path d="M604.9 600L753.4 600L680.9 509Z" fill="#3fb791" stroke="#3fb791"></path><path d="M734.4 499L900 474L741.4 350Z" fill="#3fb791" stroke="#3fb791"></path><path d="M660.9 242L654.9 116L546.3 141Z" fill="#f2ff00" stroke="#f2ff00"></path><path d="M546.3 141L416.7 0L389.7 144Z" fill="#f2ff00" stroke="#f2ff00"></path><path d="M776.4 217L654.9 116L660.9 242Z" fill="#3fb791" stroke="#3fb791"></path><path d="M741.4 350L776.4 217L660.9 242Z" fill="#3fb791" stroke="#3fb791"></path><path d="M900 362L776.4 217L741.4 350Z" fill="#459f92" stroke="#459f92"></path><path d="M226.1 126L129.6 255L257.1 274Z" fill="#55ce84" stroke="#55ce84"></path><path d="M0 512L110.6 600L150.6 466Z" fill="#3fab93" stroke="#3fab93"></path><path d="M389.7 144L226.1 126L257.1 274Z" fill="#3fab93" stroke="#3fab93"></path><path d="M257.1 0L226.1 126L389.7 144Z" fill="#98eb5c" stroke="#98eb5c"></path><path d="M0 341L150.6 466L150.6 368Z" fill="#3fab93" stroke="#3fab93"></path><path d="M150.6 466L110.6 600L285.1 600Z" fill="#3fb791" stroke="#3fb791"></path><path d="M548.3 0L416.7 0L546.3 141Z" fill="#46c38c" stroke="#46c38c"></path><path d="M649.9 0L548.3 0L654.9 116Z" fill="#7fe26c" stroke="#7fe26c"></path><path d="M654.9 116L548.3 0L546.3 141Z" fill="#68d879" stroke="#68d879"></path><path d="M753.4 600L900 474L734.4 499Z" fill="#68d879" stroke="#68d879"></path><path d="M900 474L900 362L741.4 350Z" fill="#68d879" stroke="#68d879"></path><path d="M788.4 90L654.9 116L776.4 217Z" fill="#98eb5c" stroke="#98eb5c"></path><path d="M736.4 0L649.9 0L654.9 116Z" fill="#f2ff00" stroke="#f2ff00"></path><path d="M900 151L788.4 90L776.4 217Z" fill="#d2f931" stroke="#d2f931"></path><path d="M753.4 600L900 600L900 474Z" fill="#7fe26c" stroke="#7fe26c"></path><path d="M416.7 0L257.1 0L389.7 144Z" fill="#b4f349" stroke="#b4f349"></path><path d="M226.1 126L133.6 79L129.6 255Z" fill="#3fab93" stroke="#3fab93"></path><path d="M900 362L900 200L776.4 217Z" fill="#55ce84" stroke="#55ce84"></path><path d="M0 237L0 341L129.6 255Z" fill="#d2f931" stroke="#d2f931"></path><path d="M129.6 255L0 341L150.6 368Z" fill="#68d879" stroke="#68d879"></path><path d="M257.1 0L133.6 79L226.1 126Z" fill="#3fab93" stroke="#3fab93"></path><path d="M0 341L0 512L150.6 466Z" fill="#459f92" stroke="#459f92"></path><path d="M900 0L736.4 0L788.4 90Z" fill="#55ce84" stroke="#55ce84"></path><path d="M788.4 90L736.4 0L654.9 116Z" fill="#98eb5c" stroke="#98eb5c"></path><path d="M900 200L900 151L776.4 217Z" fill="#b4f349" stroke="#b4f349"></path><path d="M0 127L0 237L129.6 255Z" fill="#f2ff00" stroke="#f2ff00"></path><path d="M0 512L0 600L110.6 600Z" fill="#7fe26c" stroke="#7fe26c"></path><path d="M257.1 0L124.6 0L133.6 79Z" fill="#d2f931" stroke="#d2f931"></path><path d="M133.6 79L0 127L129.6 255Z" fill="#55ce84" stroke="#55ce84"></path><path d="M0 0L0 127L133.6 79Z" fill="#3fb791" stroke="#3fb791"></path><path d="M900 151L900 0L788.4 90Z" fill="#459f92" stroke="#459f92"></path><path d="M124.6 0L0 0L133.6 79Z" fill="#3fab93" stroke="#3fab93"></path></g></svg>