<svg id="visual" viewBox="0 0 900 600" width="900" height="600" xmlns="http://www.w3.org/2000/svg" xmlns:xlink="http://www.w3.org/1999/xlink" version="1.1"><g stroke-width="1" stroke-linejoin="bevel"><path d="M393 318L376 374L478 383Z" fill="#46917e" stroke="#46917e"></path><path d="M478 383L524 334L393 318Z" fill="#3e593f" stroke="#3e593f"></path><path d="M376 374L394 498L478 383Z" fill="#44745c" stroke="#44745c"></path><path d="M478 383L573 373L524 334Z" fill="#252716" stroke="#252716"></path><path d="M527 503L573 373L478 383Z" fill="#2c331f" stroke="#2c331f"></path><path d="M393 318L285 313L376 374Z" fill="#3e593f" stroke="#3e593f"></path><path d="M376 374L277 404L394 498Z" fill="#44745c" stroke="#44745c"></path><path d="M467 205L393 318L524 334Z" fill="#394c33" stroke="#394c33"></path><path d="M467 205L429 208L393 318Z" fill="#459f92" stroke="#459f92"></path><path d="M393 318L337 202L285 313Z" fill="#252716" stroke="#252716"></path><path d="M285 313L277 404L376 374Z" fill="#44745c" stroke="#44745c"></path><path d="M573 237L467 205L524 334Z" fill="#46917e" stroke="#46917e"></path><path d="M394 498L527 503L478 383Z" fill="#44745c" stroke="#44745c"></path><path d="M388 135L337 202L429 208Z" fill="#459f92" stroke="#459f92"></path><path d="M429 208L337 202L393 318Z" fill="#394c33" stroke="#394c33"></path><path d="M620 309L573 237L524 334Z" fill="#44745c" stroke="#44745c"></path><path d="M688 305L620 309L713 384Z" fill="#3e593f" stroke="#3e593f"></path><path d="M573 373L620 309L524 334Z" fill="#46826c" stroke="#46826c"></path><path d="M188 425L263 491L277 404Z" fill="#252716" stroke="#252716"></path><path d="M277 404L263 491L394 498Z" fill="#46826c" stroke="#46826c"></path><path d="M190 182L213 335L285 313Z" fill="#42674d" stroke="#42674d"></path><path d="M285 313L213 335L277 404Z" fill="#2c331f" stroke="#2c331f"></path><path d="M477 106L388 135L429 208Z" fill="#3e593f" stroke="#3e593f"></path><path d="M337 202L190 182L285 313Z" fill="#252716" stroke="#252716"></path><path d="M477 106L429 208L467 205Z" fill="#252716" stroke="#252716"></path><path d="M309 600L428 600L394 498Z" fill="#2c331f" stroke="#2c331f"></path><path d="M394 498L428 600L527 503Z" fill="#46917e" stroke="#46917e"></path><path d="M566 600L614 524L527 503Z" fill="#1d1c0d" stroke="#1d1c0d"></path><path d="M527 503L614 524L573 373Z" fill="#333f28" stroke="#333f28"></path><path d="M213 335L188 425L277 404Z" fill="#44745c" stroke="#44745c"></path><path d="M594 123L477 106L467 205Z" fill="#3e593f" stroke="#3e593f"></path><path d="M428 600L533 600L527 503Z" fill="#42674d" stroke="#42674d"></path><path d="M713 384L620 309L573 373Z" fill="#46826c" stroke="#46826c"></path><path d="M620 309L690 232L573 237Z" fill="#3e593f" stroke="#3e593f"></path><path d="M573 237L594 123L467 205Z" fill="#3e593f" stroke="#3e593f"></path><path d="M188 425L195 492L263 491Z" fill="#252716" stroke="#252716"></path><path d="M263 491L309 600L394 498Z" fill="#459f92" stroke="#459f92"></path><path d="M192 600L309 600L263 491Z" fill="#252716" stroke="#252716"></path><path d="M674 600L677 474L614 524Z" fill="#333f28" stroke="#333f28"></path><path d="M614 524L677 474L573 373Z" fill="#333f28" stroke="#333f28"></path><path d="M533 600L566 600L527 503Z" fill="#2c331f" stroke="#2c331f"></path><path d="M677 474L713 384L573 373Z" fill="#42674d" stroke="#42674d"></path><path d="M690 232L594 123L573 237Z" fill="#333f28" stroke="#333f28"></path><path d="M688 305L690 232L620 309Z" fill="#252716" stroke="#252716"></path><path d="M807 330L690 232L688 305Z" fill="#1d1c0d" stroke="#1d1c0d"></path><path d="M262 112L190 182L337 202Z" fill="#42674d" stroke="#42674d"></path><path d="M213 335L82 387L188 425Z" fill="#1d1c0d" stroke="#1d1c0d"></path><path d="M262 112L337 202L388 135Z" fill="#333f28" stroke="#333f28"></path><path d="M281 0L262 112L388 135Z" fill="#394c33" stroke="#394c33"></path><path d="M262 112L203 122L190 182Z" fill="#44745c" stroke="#44745c"></path><path d="M195 492L192 600L263 491Z" fill="#42674d" stroke="#42674d"></path><path d="M100 600L192 600L195 492Z" fill="#2c331f" stroke="#2c331f"></path><path d="M566 600L674 600L614 524Z" fill="#252716" stroke="#252716"></path><path d="M836 364L807 330L713 384Z" fill="#42674d" stroke="#42674d"></path><path d="M64 306L82 387L213 335Z" fill="#3e593f" stroke="#3e593f"></path><path d="M188 425L68 503L195 492Z" fill="#3e593f" stroke="#3e593f"></path><path d="M94 233L213 335L190 182Z" fill="#2c331f" stroke="#2c331f"></path><path d="M798 197L676 112L690 232Z" fill="#44745c" stroke="#44745c"></path><path d="M690 232L676 112L594 123Z" fill="#394c33" stroke="#394c33"></path><path d="M515 0L394 0L477 106Z" fill="#459f92" stroke="#459f92"></path><path d="M114 112L94 233L190 182Z" fill="#252716" stroke="#252716"></path><path d="M515 0L477 106L594 123Z" fill="#44745c" stroke="#44745c"></path><path d="M477 106L394 0L388 135Z" fill="#1d1c0d" stroke="#1d1c0d"></path><path d="M262 112L227 0L203 122Z" fill="#252716" stroke="#252716"></path><path d="M94 233L64 306L213 335Z" fill="#3e593f" stroke="#3e593f"></path><path d="M638 0L515 0L594 123Z" fill="#333f28" stroke="#333f28"></path><path d="M836 364L713 384L834 508Z" fill="#46917e" stroke="#46917e"></path><path d="M713 384L807 330L688 305Z" fill="#46917e" stroke="#46917e"></path><path d="M0 394L68 503L82 387Z" fill="#44745c" stroke="#44745c"></path><path d="M82 387L68 503L188 425Z" fill="#333f28" stroke="#333f28"></path><path d="M394 0L281 0L388 135Z" fill="#46917e" stroke="#46917e"></path><path d="M203 122L114 112L190 182Z" fill="#3e593f" stroke="#3e593f"></path><path d="M0 282L0 394L64 306Z" fill="#252716" stroke="#252716"></path><path d="M227 0L114 112L203 122Z" fill="#44745c" stroke="#44745c"></path><path d="M807 330L798 197L690 232Z" fill="#252716" stroke="#252716"></path><path d="M68 503L100 600L195 492Z" fill="#1d1c0d" stroke="#1d1c0d"></path><path d="M834 508L713 384L677 474Z" fill="#459f92" stroke="#459f92"></path><path d="M807 330L900 297L798 197Z" fill="#2c331f" stroke="#2c331f"></path><path d="M281 0L227 0L262 112Z" fill="#1d1c0d" stroke="#1d1c0d"></path><path d="M706 0L638 0L676 112Z" fill="#46917e" stroke="#46917e"></path><path d="M676 112L638 0L594 123Z" fill="#3e593f" stroke="#3e593f"></path><path d="M64 306L0 394L82 387Z" fill="#42674d" stroke="#42674d"></path><path d="M68 503L0 529L100 600Z" fill="#394c33" stroke="#394c33"></path><path d="M0 282L64 306L94 233Z" fill="#333f28" stroke="#333f28"></path><path d="M801 600L834 508L677 474Z" fill="#252716" stroke="#252716"></path><path d="M0 184L0 282L94 233Z" fill="#252716" stroke="#252716"></path><path d="M674 600L801 600L677 474Z" fill="#333f28" stroke="#333f28"></path><path d="M835 93L706 0L676 112Z" fill="#252716" stroke="#252716"></path><path d="M0 394L0 529L68 503Z" fill="#1d1c0d" stroke="#1d1c0d"></path><path d="M0 112L0 184L114 112Z" fill="#459f92" stroke="#459f92"></path><path d="M114 112L0 184L94 233Z" fill="#252716" stroke="#252716"></path><path d="M900 436L900 297L836 364Z" fill="#44745c" stroke="#44745c"></path><path d="M836 364L900 297L807 330Z" fill="#3e593f" stroke="#3e593f"></path><path d="M798 197L835 93L676 112Z" fill="#2c331f" stroke="#2c331f"></path><path d="M834 508L900 436L836 364Z" fill="#333f28" stroke="#333f28"></path><path d="M900 531L900 436L834 508Z" fill="#42674d" stroke="#42674d"></path><path d="M900 164L835 93L798 197Z" fill="#459f92" stroke="#459f92"></path><path d="M0 529L0 600L100 600Z" fill="#459f92" stroke="#459f92"></path><path d="M76 0L0 112L114 112Z" fill="#333f28" stroke="#333f28"></path><path d="M900 600L900 531L834 508Z" fill="#1d1c0d" stroke="#1d1c0d"></path><path d="M227 0L76 0L114 112Z" fill="#42674d" stroke="#42674d"></path><path d="M900 297L900 164L798 197Z" fill="#3e593f" stroke="#3e593f"></path><path d="M900 0L811 0L835 93Z" fill="#2c331f" stroke="#2c331f"></path><path d="M835 93L811 0L706 0Z" fill="#252716" stroke="#252716"></path><path d="M801 600L900 600L834 508Z" fill="#394c33" stroke="#394c33"></path><path d="M900 164L900 99L835 93Z" fill="#1d1c0d" stroke="#1d1c0d"></path><path d="M76 0L0 0L0 112Z" fill="#2c331f" stroke="#2c331f"></path><path d="M900 99L900 0L835 93Z" fill="#3e593f" stroke="#3e593f"></path></g></svg>