<svg id="visual" viewBox="0 0 900 600" width="900" height="600" xmlns="http://www.w3.org/2000/svg" xmlns:xlink="http://www.w3.org/1999/xlink" version="1.1"><path d="M0 277L82 127L164 229L245 115L327 151L409 187L491 85L573 139L655 235L736 217L818 175L900 139L900 0L818 0L736 0L655 0L573 0L491 0L409 0L327 0L245 0L164 0L82 0L0 0Z" fill="#fbfaea"></path><path d="M0 361L82 169L164 277L245 217L327 235L409 283L491 145L573 229L655 283L736 295L818 277L900 241L900 137L818 173L736 215L655 233L573 137L491 83L409 185L327 149L245 113L164 227L82 125L0 275Z" fill="#e1dfc5"></path><path d="M0 475L82 391L164 367L245 379L327 409L409 439L491 367L573 397L655 379L736 421L818 415L900 439L900 239L818 275L736 293L655 281L573 227L491 143L409 281L327 233L245 215L164 275L82 167L0 359Z" fill="#c7c5a1"></path><path d="M0 559L82 535L164 481L245 493L327 541L409 541L491 505L573 529L655 529L736 481L818 487L900 511L900 437L818 413L736 419L655 377L573 395L491 365L409 437L327 407L245 377L164 365L82 389L0 473Z" fill="#adac7e"></path><path d="M0 601L82 601L164 601L245 601L327 601L409 601L491 601L573 601L655 601L736 601L818 601L900 601L900 509L818 485L736 479L655 527L573 527L491 503L409 539L327 539L245 491L164 479L82 533L0 557Z" fill="#94935d"></path></svg>