<svg id="visual" viewBox="0 0 900 600" width="900" height="600" xmlns="http://www.w3.org/2000/svg" xmlns:xlink="http://www.w3.org/1999/xlink" version="1.1"><path d="M0 157L13.7 152C27.3 147 54.7 137 82 146C109.3 155 136.7 183 163.8 179C191 175 218 139 245.2 132C272.3 125 299.7 147 327 151C354.3 155 381.7 141 409 149C436.3 157 463.7 187 491 180C518.3 173 545.7 129 573 126C600.3 123 627.7 161 654.8 168C682 175 709 151 736.2 149C763.3 147 790.7 167 818 164C845.3 161 872.7 135 886.3 122L900 109L900 0L886.3 0C872.7 0 845.3 0 818 0C790.7 0 763.3 0 736.2 0C709 0 682 0 654.8 0C627.7 0 600.3 0 573 0C545.7 0 518.3 0 491 0C463.7 0 436.3 0 409 0C381.7 0 354.3 0 327 0C299.7 0 272.3 0 245.2 0C218 0 191 0 163.8 0C136.7 0 109.3 0 82 0C54.7 0 27.3 0 13.7 0L0 0Z" fill="#f6f4cf"></path><path d="M0 319L13.7 313C27.3 307 54.7 295 82 322C109.3 349 136.7 415 163.8 421C191 427 218 373 245.2 359C272.3 345 299.7 371 327 383C354.3 395 381.7 393 409 390C436.3 387 463.7 383 491 392C518.3 401 545.7 423 573 427C600.3 431 627.7 417 654.8 401C682 385 709 367 736.2 356C763.3 345 790.7 341 818 342C845.3 343 872.7 349 886.3 352L900 355L900 107L886.3 120C872.7 133 845.3 159 818 162C790.7 165 763.3 145 736.2 147C709 149 682 173 654.8 166C627.7 159 600.3 121 573 124C545.7 127 518.3 171 491 178C463.7 185 436.3 155 409 147C381.7 139 354.3 153 327 149C299.7 145 272.3 123 245.2 130C218 137 191 173 163.8 177C136.7 181 109.3 153 82 144C54.7 135 27.3 145 13.7 150L0 155Z" fill="#fcfcf1"></path><path d="M0 601L13.7 601C27.3 601 54.7 601 82 601C109.3 601 136.7 601 163.8 601C191 601 218 601 245.2 601C272.3 601 299.7 601 327 601C354.3 601 381.7 601 409 601C436.3 601 463.7 601 491 601C518.3 601 545.7 601 573 601C600.3 601 627.7 601 654.8 601C682 601 709 601 736.2 601C763.3 601 790.7 601 818 601C845.3 601 872.7 601 886.3 601L900 601L900 353L886.3 350C872.7 347 845.3 341 818 340C790.7 339 763.3 343 736.2 354C709 365 682 383 654.8 399C627.7 415 600.3 429 573 425C545.7 421 518.3 399 491 390C463.7 381 436.3 385 409 388C381.7 391 354.3 393 327 381C299.7 369 272.3 343 245.2 357C218 371 191 425 163.8 419C136.7 413 109.3 347 82 320C54.7 293 27.3 305 13.7 311L0 317Z" fill="#f6f4cf"></path></svg>