<svg id="visual" viewBox="0 0 900 600" width="900" height="600" xmlns="http://www.w3.org/2000/svg" xmlns:xlink="http://www.w3.org/1999/xlink" version="1.1"><rect x="0" y="0" width="900" height="600" fill="#94935D"></rect><path d="M278 0L273.8 16.7C269.7 33.3 261.3 66.7 264.5 100C267.7 133.3 282.3 166.7 281.2 200C280 233.3 263 266.7 247.5 300C232 333.3 218 366.7 212.5 400C207 433.3 210 466.7 223.2 500C236.3 533.3 259.7 566.7 271.3 583.3L283 600L0 600L0 583.3C0 566.7 0 533.3 0 500C0 466.7 0 433.3 0 400C0 366.7 0 333.3 0 300C0 266.7 0 233.3 0 200C0 166.7 0 133.3 0 100C0 66.7 0 33.3 0 16.7L0 0Z" fill="#459F92" stroke-linecap="round" stroke-linejoin="miter"></path></svg>