<svg id="visual" viewBox="0 0 900 600" width="900" height="600" xmlns="http://www.w3.org/2000/svg" xmlns:xlink="http://www.w3.org/1999/xlink" version="1.1"><g stroke-width="1" stroke-linejoin="bevel"><path d="M465 288L419 311L461 413Z" fill="#b3b185" stroke="#b3b185"></path><path d="M419 311L401 429L461 413Z" fill="#dcdabe" stroke="#dcdabe"></path><path d="M460 477L575 410L461 413Z" fill="#c7c5a1" stroke="#c7c5a1"></path><path d="M461 413L575 410L465 288Z" fill="#9e9d6a" stroke="#9e9d6a"></path><path d="M401 429L460 477L461 413Z" fill="#9e9d6a" stroke="#9e9d6a"></path><path d="M575 410L598 323L465 288Z" fill="#fbfaea" stroke="#fbfaea"></path><path d="M337 179L302 333L419 311Z" fill="#b3b185" stroke="#b3b185"></path><path d="M419 311L302 333L401 429Z" fill="#b3b185" stroke="#b3b185"></path><path d="M598 323L530 195L465 288Z" fill="#9e9d6a" stroke="#9e9d6a"></path><path d="M465 288L397 181L419 311Z" fill="#94935d" stroke="#94935d"></path><path d="M460 477L592 483L575 410Z" fill="#d1cfaf" stroke="#d1cfaf"></path><path d="M737 393L731 324L598 323Z" fill="#dcdabe" stroke="#dcdabe"></path><path d="M530 195L397 181L465 288Z" fill="#dcdabe" stroke="#dcdabe"></path><path d="M333 510L405 529L401 429Z" fill="#f0efdb" stroke="#f0efdb"></path><path d="M401 429L405 529L460 477Z" fill="#a8a778" stroke="#a8a778"></path><path d="M460 477L536 600L592 483Z" fill="#d1cfaf" stroke="#d1cfaf"></path><path d="M265 415L333 510L401 429Z" fill="#c7c5a1" stroke="#c7c5a1"></path><path d="M302 333L265 415L401 429Z" fill="#c7c5a1" stroke="#c7c5a1"></path><path d="M397 181L337 179L419 311Z" fill="#a8a778" stroke="#a8a778"></path><path d="M166 439L223 471L265 415Z" fill="#94935d" stroke="#94935d"></path><path d="M611 65L498 109L530 195Z" fill="#dcdabe" stroke="#dcdabe"></path><path d="M530 195L498 109L397 181Z" fill="#e6e5cc" stroke="#e6e5cc"></path><path d="M397 181L423 98L337 179Z" fill="#b3b185" stroke="#b3b185"></path><path d="M731 324L639 177L598 323Z" fill="#c7c5a1" stroke="#c7c5a1"></path><path d="M598 323L639 177L530 195Z" fill="#b3b185" stroke="#b3b185"></path><path d="M326 600L417 600L405 529Z" fill="#b3b185" stroke="#b3b185"></path><path d="M405 529L536 600L460 477Z" fill="#94935d" stroke="#94935d"></path><path d="M498 109L423 98L397 181Z" fill="#f0efdb" stroke="#f0efdb"></path><path d="M417 600L536 600L405 529Z" fill="#fbfaea" stroke="#fbfaea"></path><path d="M737 393L575 410L592 483Z" fill="#b3b185" stroke="#b3b185"></path><path d="M737 393L598 323L575 410Z" fill="#e6e5cc" stroke="#e6e5cc"></path><path d="M208 264L265 415L302 333Z" fill="#dcdabe" stroke="#dcdabe"></path><path d="M265 415L223 471L333 510Z" fill="#bdbb93" stroke="#bdbb93"></path><path d="M333 510L326 600L405 529Z" fill="#b3b185" stroke="#b3b185"></path><path d="M712 522L737 393L592 483Z" fill="#9e9d6a" stroke="#9e9d6a"></path><path d="M189 202L208 264L337 179Z" fill="#94935d" stroke="#94935d"></path><path d="M337 179L208 264L302 333Z" fill="#94935d" stroke="#94935d"></path><path d="M239 600L326 600L333 510Z" fill="#fbfaea" stroke="#fbfaea"></path><path d="M536 600L619 600L592 483Z" fill="#94935d" stroke="#94935d"></path><path d="M766 268L693 161L639 177Z" fill="#94935d" stroke="#94935d"></path><path d="M639 177L611 65L530 195Z" fill="#b3b185" stroke="#b3b185"></path><path d="M619 600L712 522L592 483Z" fill="#94935d" stroke="#94935d"></path><path d="M900 413L766 268L731 324Z" fill="#bdbb93" stroke="#bdbb93"></path><path d="M731 324L766 268L639 177Z" fill="#c7c5a1" stroke="#c7c5a1"></path><path d="M770 426L731 324L737 393Z" fill="#a8a778" stroke="#a8a778"></path><path d="M712 522L770 426L737 393Z" fill="#dcdabe" stroke="#dcdabe"></path><path d="M208 264L166 439L265 415Z" fill="#fbfaea" stroke="#fbfaea"></path><path d="M223 471L239 600L333 510Z" fill="#94935d" stroke="#94935d"></path><path d="M296 63L189 202L337 179Z" fill="#b3b185" stroke="#b3b185"></path><path d="M208 264L109 416L166 439Z" fill="#fbfaea" stroke="#fbfaea"></path><path d="M693 161L611 65L639 177Z" fill="#bdbb93" stroke="#bdbb93"></path><path d="M498 109L505 0L423 98Z" fill="#9e9d6a" stroke="#9e9d6a"></path><path d="M334 0L296 63L423 98Z" fill="#dcdabe" stroke="#dcdabe"></path><path d="M423 98L296 63L337 179Z" fill="#fbfaea" stroke="#fbfaea"></path><path d="M139 500L239 600L223 471Z" fill="#9e9d6a" stroke="#9e9d6a"></path><path d="M619 600L700 600L712 522Z" fill="#a8a778" stroke="#a8a778"></path><path d="M712 522L813 462L770 426Z" fill="#9e9d6a" stroke="#9e9d6a"></path><path d="M611 65L505 0L498 109Z" fill="#fbfaea" stroke="#fbfaea"></path><path d="M505 0L420 0L423 98Z" fill="#fbfaea" stroke="#fbfaea"></path><path d="M693 161L731 104L611 65Z" fill="#9e9d6a" stroke="#9e9d6a"></path><path d="M611 65L609 0L505 0Z" fill="#a8a778" stroke="#a8a778"></path><path d="M790 163L731 104L693 161Z" fill="#b3b185" stroke="#b3b185"></path><path d="M109 416L139 500L166 439Z" fill="#b3b185" stroke="#b3b185"></path><path d="M166 439L139 500L223 471Z" fill="#f0efdb" stroke="#f0efdb"></path><path d="M829 600L813 462L712 522Z" fill="#e6e5cc" stroke="#e6e5cc"></path><path d="M770 426L900 413L731 324Z" fill="#dcdabe" stroke="#dcdabe"></path><path d="M766 268L790 163L693 161Z" fill="#d1cfaf" stroke="#d1cfaf"></path><path d="M77 261L109 416L208 264Z" fill="#d1cfaf" stroke="#d1cfaf"></path><path d="M900 272L790 163L766 268Z" fill="#fbfaea" stroke="#fbfaea"></path><path d="M420 0L334 0L423 98Z" fill="#b3b185" stroke="#b3b185"></path><path d="M296 63L215 61L189 202Z" fill="#a8a778" stroke="#a8a778"></path><path d="M689 0L609 0L611 65Z" fill="#a8a778" stroke="#a8a778"></path><path d="M334 0L215 61L296 63Z" fill="#c7c5a1" stroke="#c7c5a1"></path><path d="M189 202L77 261L208 264Z" fill="#b3b185" stroke="#b3b185"></path><path d="M790 163L776 108L731 104Z" fill="#f0efdb" stroke="#f0efdb"></path><path d="M731 104L689 0L611 65Z" fill="#9e9d6a" stroke="#9e9d6a"></path><path d="M77 228L77 261L189 202Z" fill="#94935d" stroke="#94935d"></path><path d="M102 67L77 228L189 202Z" fill="#f0efdb" stroke="#f0efdb"></path><path d="M769 0L689 0L731 104Z" fill="#bdbb93" stroke="#bdbb93"></path><path d="M0 479L139 500L109 416Z" fill="#fbfaea" stroke="#fbfaea"></path><path d="M0 600L130 600L139 500Z" fill="#f0efdb" stroke="#f0efdb"></path><path d="M139 500L130 600L239 600Z" fill="#e6e5cc" stroke="#e6e5cc"></path><path d="M900 485L900 413L813 462Z" fill="#e6e5cc" stroke="#e6e5cc"></path><path d="M813 462L900 413L770 426Z" fill="#b3b185" stroke="#b3b185"></path><path d="M790 163L900 108L776 108Z" fill="#dcdabe" stroke="#dcdabe"></path><path d="M700 600L829 600L712 522Z" fill="#e6e5cc" stroke="#e6e5cc"></path><path d="M900 413L900 272L766 268Z" fill="#f0efdb" stroke="#f0efdb"></path><path d="M829 600L900 485L813 462Z" fill="#a8a778" stroke="#a8a778"></path><path d="M334 0L170 0L215 61Z" fill="#b3b185" stroke="#b3b185"></path><path d="M215 61L102 67L189 202Z" fill="#dcdabe" stroke="#dcdabe"></path><path d="M900 0L769 0L776 108Z" fill="#a8a778" stroke="#a8a778"></path><path d="M776 108L769 0L731 104Z" fill="#bdbb93" stroke="#bdbb93"></path><path d="M170 0L102 67L215 61Z" fill="#fbfaea" stroke="#fbfaea"></path><path d="M900 272L900 172L790 163Z" fill="#dcdabe" stroke="#dcdabe"></path><path d="M77 261L0 437L109 416Z" fill="#dcdabe" stroke="#dcdabe"></path><path d="M0 260L0 437L77 261Z" fill="#d1cfaf" stroke="#d1cfaf"></path><path d="M0 260L77 261L77 228Z" fill="#dcdabe" stroke="#dcdabe"></path><path d="M0 224L0 260L77 228Z" fill="#d1cfaf" stroke="#d1cfaf"></path><path d="M0 66L0 224L77 228Z" fill="#94935d" stroke="#94935d"></path><path d="M0 437L0 479L109 416Z" fill="#d1cfaf" stroke="#d1cfaf"></path><path d="M900 172L900 108L790 163Z" fill="#bdbb93" stroke="#bdbb93"></path><path d="M829 600L900 600L900 485Z" fill="#a8a778" stroke="#a8a778"></path><path d="M170 0L101 0L102 67Z" fill="#bdbb93" stroke="#bdbb93"></path><path d="M102 67L0 66L77 228Z" fill="#f0efdb" stroke="#f0efdb"></path><path d="M0 479L0 600L139 500Z" fill="#fbfaea" stroke="#fbfaea"></path><path d="M101 0L0 66L102 67Z" fill="#c7c5a1" stroke="#c7c5a1"></path><path d="M900 108L900 0L776 108Z" fill="#94935d" stroke="#94935d"></path><path d="M101 0L0 0L0 66Z" fill="#dcdabe" stroke="#dcdabe"></path></g></svg>